<?xml version="1.0" encoding="utf-8"?><svg viewBox="0 0 32 32" xmlns="http://www.w3.org/2000/svg" xmlns:xlink="http://www.w3.org/1999/xlink"><style>:root>svg{display:none}:root>svg:target{display:block}</style><svg viewBox="0 0 32 32" id="icon-circle" xmlns="http://www.w3.org/2000/svg"><path d="M6 32h-.007A6 6 0 010 26.088V1a1 1 0 011-1h10a1 1 0 011 1v10.554l8.294-8.262a1 1 0 011.414 0l7.07 7.072a1 1 0 010 1.416L20.522 20H31a1 1 0 011 1v10a1 1 0 01-1 1zm4.486-2H30v-8H18.516zM3 26a3 3 0 103-3 3 3 0 00-3 3zm9-11.624v11.292l14.656-14.6L21 5.412z"/></svg><svg viewBox="0 0 21.6 29.206" id="icon-play" xmlns="http://www.w3.org/2000/svg"><path d="M20.276 12.986a2 2 0 010 3.235l-16.6 12.072A2 2 0 01.5 26.675V2.531A2 2 0 013.676.913z"/></svg><svg viewBox="0 0 22 22" id="icon-search" xmlns="http://www.w3.org/2000/svg"><path fill-rule="evenodd" clip-rule="evenodd" d="M9.875 2.25a7.625 7.625 0 100 15.25 7.625 7.625 0 000-15.25zM.25 9.875a9.625 9.625 0 1117.098 6.066l4.108 4.101a1 1 0 01-1.412 1.416l-4.111-4.103A9.625 9.625 0 01.25 9.875z"/></svg></svg>