<?xml version="1.0" encoding="utf-8"?><svg viewBox="0 0 32 32" xmlns="http://www.w3.org/2000/svg" xmlns:xlink="http://www.w3.org/1999/xlink"><style>:root>svg{display:none}:root>svg:target{display:block}</style><svg viewBox="0 0 11.595 7.481" id="icon-accordion" xmlns="http://www.w3.org/2000/svg"><path d="M5.045.341L.249 5.822A1 1 0 001 7.481h9.592a1 1 0 00.753-1.659L6.551.342a1 1 0 00-1.506 0z"/></svg><svg viewBox="0 0 14.001 9.001" id="icon-arrow" xmlns="http://www.w3.org/2000/svg"><path d="M14 4.5a.5.5 0 00-.5-.5H1.708L4.855.855a.5.5 0 10-.708-.708l-4 4a.5.5 0 000 .708l4 4a.5.5 0 00.708-.708L1.708 5H13.5a.5.5 0 00.5-.5z"/></svg><svg viewBox="0 0 32 32" id="icon-circle" xmlns="http://www.w3.org/2000/svg"><path d="M6 32h-.007A6 6 0 010 26.088V1a1 1 0 011-1h10a1 1 0 011 1v10.554l8.294-8.262a1 1 0 011.414 0l7.07 7.072a1 1 0 010 1.416L20.522 20H31a1 1 0 011 1v10a1 1 0 01-1 1zm4.486-2H30v-8H18.516zM3 26a3 3 0 103-3 3 3 0 00-3 3zm9-11.624v11.292l14.656-14.6L21 5.412z"/></svg><svg viewBox="0 0 12 22" id="icon-facebook" xmlns="http://www.w3.org/2000/svg"><path d="M11.563.005L8.786 0c-3.12 0-5.137 2.125-5.137 5.414v2.497H.857c-.242 0-.437.2-.437.448v3.617c0 .248.196.449.437.449h2.792v9.126c0 .248.195.449.437.449h3.643a.443.443 0 00.437-.449v-9.126h3.265c.241 0 .436-.2.436-.449l.002-3.617a.456.456 0 00-.128-.317.431.431 0 00-.31-.131H8.167V5.794c0-1.017.236-1.533 1.525-1.533h1.871c.242 0 .437-.202.437-.45V.454a.443.443 0 00-.436-.448z"/></svg><svg viewBox="0 0 21 20" id="icon-instagram" xmlns="http://www.w3.org/2000/svg"><path d="M19.98 5.88c-.046-1.063-.218-1.793-.464-2.426a4.88 4.88 0 00-1.157-1.774 4.922 4.922 0 00-1.77-1.153C15.952.281 15.226.11 14.163.063 13.093.012 12.753 0 10.037 0 7.322 0 6.982.012 5.915.059 4.853.105 4.122.277 3.49.523A4.88 4.88 0 001.715 1.68 4.924 4.924 0 00.563 3.45C.316 4.087.145 4.813.098 5.876c-.051 1.07-.063 1.41-.063 4.126 0 2.715.012 3.055.059 4.122.047 1.063.219 1.793.465 2.426a4.932 4.932 0 001.156 1.774c.5.508 1.106.902 1.77 1.152.637.247 1.364.419 2.426.465 1.067.047 1.407.059 4.122.059 2.716 0 3.056-.012 4.122-.059 1.063-.046 1.793-.218 2.426-.464a5.116 5.116 0 002.927-2.927c.246-.637.418-1.364.465-2.426.047-1.067.058-1.407.058-4.122s-.004-3.055-.05-4.122zm-1.8 8.166c-.044.977-.208 1.504-.345 1.856a3.317 3.317 0 01-1.898 1.898c-.352.137-.883.301-1.856.344-1.055.047-1.371.059-4.04.059-2.668 0-2.989-.012-4.04-.059-.977-.043-1.504-.207-1.856-.344a3.077 3.077 0 01-1.148-.746 3.11 3.11 0 01-.747-1.148c-.136-.352-.3-.883-.343-1.856-.047-1.055-.059-1.372-.059-4.04 0-2.669.012-2.99.059-4.04.043-.977.207-1.504.343-1.856A3.04 3.04 0 013 2.965a3.105 3.105 0 011.15-.746c.35-.137.882-.3 1.855-.344 1.055-.046 1.372-.058 4.04-.058 2.672 0 2.989.012 4.04.058.977.043 1.504.207 1.856.344.433.16.828.414 1.148.746.332.325.586.715.747 1.15.136.35.3.882.343 1.855.047 1.055.059 1.371.059 4.04 0 2.668-.012 2.98-.059 4.036z"/><path d="M10.037 4.864A5.139 5.139 0 004.9 10.002a5.139 5.139 0 105.138-5.138zm0 8.47a3.333 3.333 0 11.001-6.666 3.333 3.333 0 010 6.667zM16.578 4.661a1.2 1.2 0 11-2.4 0 1.2 1.2 0 012.4 0z"/></svg><svg viewBox="0 0 21.6 29.206" id="icon-play" xmlns="http://www.w3.org/2000/svg"><path d="M20.276 12.986a2 2 0 010 3.235l-16.6 12.072A2 2 0 01.5 26.675V2.531A2 2 0 013.676.913z"/></svg><svg viewBox="0 0 22 22" id="icon-search" xmlns="http://www.w3.org/2000/svg"><path fill-rule="evenodd" clip-rule="evenodd" d="M9.875 2.25a7.625 7.625 0 100 15.25 7.625 7.625 0 000-15.25zM.25 9.875a9.625 9.625 0 1117.098 6.066l4.108 4.101a1 1 0 01-1.412 1.416l-4.111-4.103A9.625 9.625 0 01.25 9.875z"/></svg><svg viewBox="0 0 22.825 21.708" id="icon-star" xmlns="http://www.w3.org/2000/svg"><path d="M11.413 18L4.36 21.708l1.347-7.854L0 8.292l7.886-1.146L11.413 0l3.527 7.146 7.886 1.146-5.706 5.562 1.347 7.854z"/></svg><svg viewBox="0 0 22 18" id="icon-twitter" xmlns="http://www.w3.org/2000/svg"><path d="M21.5 2.772a8.902 8.902 0 01-2.474.65 4.18 4.18 0 001.894-2.28 8.922 8.922 0 01-2.737 1A4.387 4.387 0 0015.038.84c-2.379 0-4.308 1.847-4.308 4.124 0 .323.038.638.112.94-3.58-.173-6.754-1.815-8.879-4.31a3.962 3.962 0 00-.583 2.073c0 1.431.762 2.694 1.916 3.433a4.455 4.455 0 01-1.95-.518v.052c0 1.997 1.485 3.665 3.454 4.044-.36.093-.741.145-1.135.145a4.31 4.31 0 01-.81-.077c.548 1.64 2.138 2.832 4.023 2.865a8.89 8.89 0 01-5.35 1.763c-.348 0-.69-.02-1.028-.057a12.572 12.572 0 006.603 1.856c7.925 0 12.257-6.285 12.257-11.736l-.015-.534a8.412 8.412 0 002.155-2.13z"/></svg></svg>